<svg d="pnr" x="0" y="0" style="enable-background:new 0 0 6071 48.1" version="1.1" viewBox="0 0 6071 48.1"><path d="m4607 39.2 29.4 4.1c0 2.6 2.1 4.7 4.7 4.7s4.7-2.1 4.7-4.7-2.1-4.7-4.7-4.7c-1.1 0-2.1.4-2.8 1l-32.1-32c.6-.8.9-1.8.9-2.8 0-2.6-2.1-4.7-4.7-4.7s-4.7 2.1-4.7 4.7c0 1.1.4 2 .9 2.8l-32.1 32c-.8-.6-1.8-1-2.8-1-2.6 0-4.7 2.1-4.7 4.7s2.1 4.7 4.7 4.7 4.7-2.1 4.7-4.7c0-1.1-.4-2-.9-2.8l32.1-32c.8.6 1.8 1 2.8 1 1.1 0 2.1-.4 2.8-1l32.1 32c-.3.5-.6 1-.8 1.5l-29.4-4.1c0-2.6-2.1-4.7-4.7-4.7s-4.7 2.1-4.7 4.7 2.1 4.7 4.7 4.7c2.2 0 4-1.4 4.6-3.4M4676 13c-1.1-.4-2.9-.6-5.5-.6h-5.5v23.9h2.5v-11h2.3c3 0 5.7-.1 7.4-1.2 1.8-1.1 2.8-3 2.8-5.2-.1-2.8-1.5-5-4-5.9m0 8.8c-1 .8-2.5 1-4.7 1h-3.8v-7.9h4.1c1.7 0 3.2.1 4.3.9.9.7 1.5 1.9 1.5 3.1-.1 1-.6 2.2-1.4 2.9M4694.9 12.4h-.6L4683 36.1v.1h2.8l3.7-7.8h10.2l3.7 7.8h2.7l-11.2-23.8zm3.6 13.6h-7.9l4-8.4 3.9 8.4zM4729.6 30.5 4714 12.4h-.6v23.8h2.5V18.4l15.5 17.8h.7V12.4h-2.5zM4753.1 11.8c-6.9 0-12.4 5.5-12.4 12.6 0 7 5.5 12.4 12.6 12.4 7 0 12.6-5.5 12.6-12.5 0-3.4-1.3-6.6-3.7-8.9-2.4-2.3-5.6-3.6-9.1-3.6m10.2 12.5c0 5.8-4.3 10.1-10 10.1-5.6 0-9.9-4.4-9.9-10 0-6.4 5-10.2 9.9-10.2 2.6 0 5.1 1 7 2.8 1.9 1.9 3 4.5 3 7.3M4788.8 21.7c.5-1.1.7-1.8.7-3 0-2.7-1.5-4.8-3.9-5.8-1.1-.4-2.9-.6-5.5-.6h-5.5v23.9h2.5v-11h1.3l8.5 11h3.1l-8.6-11c4 0 6.2-1.1 7.4-3.5m-1.9-2.9c0 1.2-.5 2.3-1.4 3-1.1.9-2.9 1-4.6 1h-3.9v-7.9h4.8c3.3-.1 5.1 1.4 5.1 3.9M4808.6 12.4h-.6l-11.3 23.8v.1h2.8l3.7-7.8h10.2l3.7 7.8h2.7l-11.2-23.9zm3.6 13.6h-7.9l4-8.4 3.9 8.4zM4850.1 12.4h-.5l-9.5 19.4-9.6-19.4h-.5l-3.4 23.8h2.4l2.3-16.9 8.4 16.9h.7l8.3-16.8 2.3 16.8h2.4l-3.3-23.8zM4861.9 12.4h2.5v23.9h-2.5zM4889.2 12.5l.1-.1h-3.4l-9.4 8.8v-8.8h-2.5v23.8h2.5V25.3l10.3 10.9h3.4l-12.4-13.1zM4908.3 12.4h-.6l-11.3 23.8v.1h2.8l3.7-7.8h10.2l3.7 7.8h2.7l-11.2-23.9zm3.6 13.6h-7.9l4-8.4 3.9 8.4zM4920.2 11.8h1.1v4.6h.7v-4.6h1.1v-.6h-2.9zM4929.3 11.3v-.1h-.2l-2 4.1-2-4v-.1h-.2l-.7 5.2h.6l.5-3.5 1.7 3.5h.2l1.7-3.5.5 3.5h.6zM4987.3 39.2l29.4 4.1c0 2.6 2.1 4.7 4.7 4.7s4.7-2.1 4.7-4.7-2.1-4.7-4.7-4.7c-1.1 0-2.1.4-2.8 1l-32.1-32c.6-.8.9-1.8.9-2.8 0-2.6-2.1-4.7-4.7-4.7s-4.7 2.1-4.7 4.7c0 1.1.4 2 .9 2.8l-32.1 32c-.8-.6-1.8-1-2.8-1-2.6 0-4.7 2.1-4.7 4.7s2.1 4.7 4.7 4.7 4.7-2.1 4.7-4.7c0-1.1-.4-2-.9-2.8l32.1-32c.8.6 1.8 1 2.8 1s2.1-.4 2.8-1l32.1 32c-.3.5-.6 1-.8 1.5l-29.4-4.1c0-2.6-2.1-4.7-4.7-4.7s-4.7 2.1-4.7 4.7 2.1 4.7 4.7 4.7c2.2 0 4-1.4 4.6-3.4M5056.3 13c-1.1-.4-2.9-.6-5.5-.6h-5.5v23.9h2.5v-11h2.3c3 0 5.7-.1 7.4-1.2 1.8-1.1 2.8-3 2.8-5.2-.1-2.8-1.5-5-4-5.9m0 8.8c-1 .8-2.5 1-4.7 1h-3.8v-7.9h4.1c1.7 0 3.2.1 4.3.9.9.7 1.5 1.9 1.5 3.1-.1 1-.6 2.2-1.4 2.9M5075.2 12.4h-.6l-11.3 23.8v.1h2.8l3.7-7.8h10.2l3.7 7.8h2.7l-11.2-23.9zm3.6 13.6h-7.9l4-8.4 3.9 8.4zM5109.9 30.5l-15.6-18.1h-.6v23.8h2.5V18.4l15.6 17.8h.6V12.4h-2.5zM5133.4 11.8c-6.9 0-12.4 5.5-12.4 12.6 0 7 5.5 12.4 12.6 12.4 7 0 12.6-5.5 12.6-12.5 0-3.4-1.3-6.6-3.7-8.9-2.4-2.3-5.6-3.6-9.1-3.6m10.2 12.5c0 5.8-4.3 10.1-10 10.1-5.6 0-9.9-4.4-9.9-10 0-6.4 5-10.2 9.9-10.2 2.6 0 5.1 1 7 2.8 1.9 1.9 3 4.5 3 7.3M5169.2 21.7c.5-1.1.7-1.8.7-3 0-2.7-1.5-4.8-3.9-5.8-1.1-.4-2.9-.6-5.5-.6h-5.5v23.9h2.5v-11h1.3l8.5 11h3.1l-8.6-11c3.9 0 6.2-1.1 7.4-3.5m-2-2.9c0 1.2-.5 2.3-1.4 3-1.1.9-2.9 1-4.6 1h-3.9v-7.9h4.8c3.3-.1 5.1 1.4 5.1 3.9M5188.9 12.4h-.6L5177 36.1v.1h2.8l3.7-7.8h10.2l3.7 7.8h2.7l-11.2-23.8zm3.6 13.6h-7.9l4-8.4 3.9 8.4zM5230.4 12.4h-.5l-9.5 19.4-9.6-19.4h-.5l-3.4 23.8h2.4l2.3-16.9 8.4 16.9h.7l8.3-16.8 2.3 16.8h2.5l-3.4-23.8zM5242.2 12.4h2.5v23.9h-2.5zM5269.5 12.5l.1-.1h-3.4l-9.4 8.8v-8.8h-2.5v23.8h2.5V25.3l10.3 10.9h3.4l-12.4-13.1zM5288.6 12.4h-.6l-11.3 23.8v.1h2.8l3.7-7.8h10.2l3.7 7.8h2.7l-11.2-23.9zm3.6 13.6h-7.9l4-8.4 3.9 8.4zM5300.5 11.8h1.2v4.6h.6v-4.6h1.1v-.6h-2.9zM5309.6 11.3v-.1h-.2l-2 4.1-2-4v-.1h-.1l-.8 5.2h.6l.5-3.5 1.7 3.5h.2l1.8-3.5.4 3.5h.6zM5367.6 39.2l29.4 4.1c0 2.6 2.1 4.7 4.7 4.7s4.7-2.1 4.7-4.7-2.1-4.7-4.7-4.7c-1.1 0-2.1.4-2.8 1l-32.1-32c.6-.8.9-1.8.9-2.8 0-2.6-2.1-4.7-4.7-4.7s-4.7 2.1-4.7 4.7c0 1.1.4 2 .9 2.8l-32.1 32c-.8-.6-1.8-1-2.8-1-2.6 0-4.7 2.1-4.7 4.7s2.1 4.7 4.7 4.7 4.7-2.1 4.7-4.7c0-1.1-.4-2-.9-2.8l32.1-32c.8.6 1.8 1 2.8 1 1.1 0 2.1-.4 2.8-1l32.1 32c-.3.5-.6 1-.8 1.5l-29.4-4.1c0-2.6-2.1-4.7-4.7-4.7s-4.7 2.1-4.7 4.7 2.1 4.7 4.7 4.7c2.2 0 4-1.4 4.6-3.4M5436.6 13c-1.1-.4-2.9-.6-5.5-.6h-5.5v23.9h2.5v-11h2.3c3 0 5.7-.1 7.4-1.2 1.8-1.1 2.8-3 2.8-5.2 0-2.8-1.5-5-4-5.9m0 8.8c-1 .8-2.5 1-4.7 1h-3.8v-7.9h4.1c1.7 0 3.2.1 4.3.9.9.7 1.5 1.9 1.5 3.1 0 1-.6 2.2-1.4 2.9M5455.5 12.4h-.6l-11.3 23.8v.1h2.8l3.7-7.8h10.2l3.7 7.8h2.7l-11.2-23.9zm3.6 13.6h-7.9l4-8.4 3.9 8.4zM5490.2 30.5l-15.6-18.1h-.6v23.8h2.5V18.4l15.6 17.8h.6V12.4h-2.5zM5513.7 11.8c-7 0-12.4 5.5-12.4 12.6 0 7 5.5 12.4 12.6 12.4 7 0 12.6-5.5 12.6-12.5 0-3.4-1.3-6.6-3.7-8.9-2.3-2.3-5.6-3.6-9.1-3.6m10.2 12.5c0 5.8-4.3 10.1-10 10.1-5.6 0-9.9-4.4-9.9-10 0-6.4 5-10.2 9.9-10.2 2.6 0 5.1 1 7 2.8 1.9 1.9 3 4.5 3 7.3M5549.5 21.7c.5-1.1.7-1.8.7-3 0-2.7-1.5-4.8-3.9-5.8-1.1-.4-2.9-.6-5.5-.6h-5.5v23.9h2.5v-11h1.3l8.5 11h3.1l-8.6-11c3.9 0 6.2-1.1 7.4-3.5m-1.9-2.9c0 1.2-.5 2.3-1.4 3-1.1.9-2.9 1-4.6 1h-3.9v-7.9h4.8c3.2-.1 5.1 1.4 5.1 3.9M5569.2 12.4h-.6l-11.3 23.8v.1h2.8l3.7-7.8h10.2l3.7 7.8h2.7l-11.2-23.9zm3.6 13.6h-7.9l4-8.4 3.9 8.4zM5610.7 12.4h-.5l-9.5 19.4-9.6-19.4h-.5l-3.4 23.8h2.4l2.3-16.9 8.4 16.9h.7l8.4-16.8 2.2 16.8h2.5l-3.4-23.8zM5622.5 12.4h2.5v23.9h-2.5zM5649.8 12.5l.1-.1h-3.4l-9.4 8.8v-8.8h-2.5v23.8h2.5V25.3l10.4 10.9h3.3l-12.4-13.1zM5668.9 12.4h-.6L5657 36.1v.1h2.8l3.7-7.8h10.2l3.7 7.8h2.7l-11.2-23.8zm3.6 13.6h-7.9l4-8.4 3.9 8.4zM5680.8 11.8h1.2v4.6h.6v-4.6h1.1v-.6h-2.9zM5689.9 11.3v-.1h-.2l-1.9 4.1-2-4-.1-.1h-.1l-.8 5.2h.7l.4-3.5 1.8 3.5h.2l1.7-3.5.4 3.5h.7zM5747.9 39.2l29.4 4.1c0 2.6 2.1 4.7 4.7 4.7s4.7-2.1 4.7-4.7-2.1-4.7-4.7-4.7c-1.1 0-2.1.4-2.8 1l-32.1-32c.6-.8.9-1.8.9-2.8 0-2.6-2.1-4.7-4.7-4.7s-4.7 2.1-4.7 4.7c0 1.1.4 2 .9 2.8l-32.1 32c-.8-.6-1.8-1-2.8-1-2.6 0-4.7 2.1-4.7 4.7s2.1 4.7 4.7 4.7 4.7-2.1 4.7-4.7c0-1.1-.4-2-.9-2.8l32.1-32c.8.6 1.8 1 2.8 1 1.1 0 2.1-.4 2.8-1l32.1 32c-.3.5-.6 1-.8 1.5l-29.4-4.1c0-2.6-2.1-4.7-4.7-4.7s-4.7 2.1-4.7 4.7 2.1 4.7 4.7 4.7c2.2 0 4-1.4 4.6-3.4M5816.9 13c-1.1-.4-2.9-.6-5.5-.6h-5.5v23.9h2.5v-11h2.3c3 0 5.7-.1 7.4-1.2 1.8-1.1 2.8-3 2.8-5.2 0-2.8-1.5-5-4-5.9m0 8.8c-1 .8-2.5 1-4.7 1h-3.8v-7.9h4.1c1.7 0 3.2.1 4.3.9.9.7 1.5 1.9 1.5 3.1 0 1-.6 2.2-1.4 2.9M5835.8 12.4h-.6l-11.3 23.8v.1h2.8l3.7-7.8h10.2l3.7 7.8h2.7l-11.2-23.9zm3.6 13.6h-7.9l4-8.4 3.9 8.4zM5870.5 30.5l-15.6-18.1h-.6v23.8h2.5V18.4l15.6 17.8h.6V12.4h-2.5zM5894.1 11.8c-7 0-12.4 5.5-12.4 12.6 0 7 5.5 12.4 12.6 12.4 7 0 12.6-5.5 12.6-12.5 0-3.4-1.3-6.6-3.7-8.9-2.4-2.3-5.6-3.6-9.1-3.6m10.1 12.5c0 5.8-4.3 10.1-10 10.1-5.6 0-9.9-4.4-9.9-10 0-6.4 5-10.2 9.9-10.2 2.6 0 5.1 1 7 2.8 1.9 1.9 3 4.5 3 7.3M5929.8 21.7c.5-1.1.7-1.8.7-3 0-2.7-1.5-4.8-3.9-5.8-1.1-.4-2.9-.6-5.5-.6h-5.5v23.9h2.5v-11h1.3l8.5 11h3.1l-8.6-11c4 0 6.2-1.1 7.4-3.5m-1.9-2.9c0 1.2-.5 2.3-1.4 3-1.1.9-2.9 1-4.6 1h-3.9v-7.9h4.8c3.2-.1 5.1 1.4 5.1 3.9M5949.6 12.4h-.6l-11.3 23.8v.1h2.8l3.7-7.8h10.2l3.7 7.8h2.7l-11.2-23.9zm3.6 13.6h-7.9l4-8.4 3.9 8.4zM5991 12.4h-.5l-9.5 19.4-9.6-19.4h-.5l-3.4 23.8h2.5l2.2-16.9 8.5 16.9h.6l8.4-16.8 2.3 16.8h2.4l-3.4-23.8zM6002.9 12.4h2.5v23.9h-2.5zM6030.1 12.5l.1-.1h-3.4l-9.4 8.8v-8.8h-2.5v23.8h2.5V25.3l10.4 10.9h3.3l-12.3-13.1zM6049.3 12.4h-.6l-11.3 23.8v.1h2.8l3.7-7.8h10.2l3.7 7.8h2.7l-11.2-23.9zm3.6 13.6h-7.9l4-8.4 3.9 8.4zM6061.2 11.8h1.1v4.6h.6v-4.6h1.1v-.6h-2.8zM6070.2 11.3v-.1h-.1l-2 4.1-2-4v-.1h-.2l-.7 5.2h.6l.4-3.5 1.8 3.5h.2l1.7-3.5.5 3.5h.6zM3087.3 39.2l29.4 4.1c0 2.6 2.1 4.7 4.7 4.7s4.7-2.1 4.7-4.7-2.1-4.7-4.7-4.7c-1.1 0-2.1.4-2.8 1l-32.1-32c.6-.8.9-1.8.9-2.8 0-2.6-2.1-4.7-4.7-4.7s-4.7 2.1-4.7 4.7c0 1.1.4 2 .9 2.8l-32.1 32c-.8-.6-1.8-1-2.8-1-2.6 0-4.7 2.1-4.7 4.7s2.1 4.7 4.7 4.7 4.7-2.1 4.7-4.7c0-1.1-.4-2-.9-2.8l32.1-32c.8.6 1.8 1 2.8 1s2.1-.4 2.8-1l32.1 32c-.3.5-.6 1-.8 1.5l-29.4-4.1c0-2.6-2.1-4.7-4.7-4.7s-4.7 2.1-4.7 4.7 2.1 4.7 4.7 4.7c2.2 0 4-1.4 4.6-3.4M3156.3 13c-1.1-.4-2.9-.6-5.5-.6h-5.5v23.9h2.5v-11h2.3c3 0 5.7-.1 7.4-1.2 1.8-1.1 2.8-3 2.8-5.2 0-2.8-1.5-5-4-5.9m0 8.8c-1 .8-2.5 1-4.7 1h-3.8v-7.9h4.1c1.7 0 3.2.1 4.3.9.9.7 1.5 1.9 1.5 3.1 0 1-.6 2.2-1.4 2.9M3175.2 12.4h-.6l-11.3 23.8v.1h2.8l3.7-7.8h10.2l3.7 7.8h2.7l-11.2-23.9zm3.6 13.6h-7.9l4-8.4 3.9 8.4zM3209.9 30.5l-15.6-18.1h-.6v23.8h2.5V18.4l15.6 17.8h.6V12.4h-2.5zM3233.4 11.8c-6.9 0-12.4 5.5-12.4 12.6 0 7 5.5 12.4 12.6 12.4 7 0 12.6-5.5 12.6-12.5 0-3.4-1.3-6.6-3.7-8.9-2.3-2.3-5.6-3.6-9.1-3.6m10.2 12.5c0 5.8-4.3 10.1-10 10.1-5.6 0-9.9-4.4-9.9-10 0-6.4 5-10.2 9.9-10.2 2.6 0 5.1 1 7 2.8 1.9 1.9 3 4.5 3 7.3M3269.2 21.7c.5-1.1.7-1.8.7-3 0-2.7-1.5-4.8-3.9-5.8-1.1-.4-2.9-.6-5.5-.6h-5.5v23.9h2.5v-11h1.3l8.5 11h3.1l-8.6-11c4 0 6.2-1.1 7.4-3.5m-1.9-2.9c0 1.2-.5 2.3-1.4 3-1.1.9-2.9 1-4.6 1h-3.9v-7.9h4.8c3.2-.1 5.1 1.4 5.1 3.9M3289 12.4h-.6l-11.3 23.8v.1h2.8l3.7-7.8h10.2l3.7 7.8h2.7L3289 12.4zm3.6 13.6h-7.9l4-8.4 3.9 8.4zM3330.4 12.4h-.5l-9.5 19.4-9.6-19.4h-.5l-3.4 23.8h2.5l2.2-16.9 8.5 16.9h.6l8.4-16.8 2.3 16.8h2.4l-3.4-23.8zM3342.2 12.4h2.5v23.9h-2.5zM3369.5 12.5l.1-.1h-3.4l-9.4 8.8v-8.8h-2.5v23.8h2.5V25.3l10.4 10.9h3.3l-12.3-13.1zM3388.7 12.4h-.6l-11.3 23.8v.1h2.8l3.7-7.8h10.2l3.7 7.8h2.7l-11.2-23.9zm3.6 13.6h-7.9l4-8.4 3.9 8.4zM3400.5 11.8h1.2v4.6h.6v-4.6h1.1v-.6h-2.9zM3409.6 11.3v-.1h-.1l-2 4.1-2-4v-.1h-.2l-.7 5.2h.6l.4-3.5 1.8 3.5h.2l1.7-3.5.5 3.5h.6zM3467.6 39.2l29.4 4.1c0 2.6 2.1 4.7 4.7 4.7s4.7-2.1 4.7-4.7-2.1-4.7-4.7-4.7c-1.1 0-2.1.4-2.8 1l-32.1-32c.6-.8.9-1.8.9-2.8 0-2.6-2.1-4.7-4.7-4.7s-4.7 2.1-4.7 4.7c0 1.1.4 2 .9 2.8l-32.1 32c-.8-.6-1.8-1-2.8-1-2.6 0-4.7 2.1-4.7 4.7s2.1 4.7 4.7 4.7 4.7-2.1 4.7-4.7c0-1.1-.4-2-.9-2.8l32.1-32c.8.6 1.8 1 2.8 1s2.1-.4 2.8-1l32.1 32c-.3.5-.6 1-.8 1.5l-29.4-4.1c0-2.6-2.1-4.7-4.7-4.7s-4.7 2.1-4.7 4.7 2.1 4.7 4.7 4.7c2.2 0 4.1-1.4 4.6-3.4M3536.7 13c-1.1-.4-2.9-.6-5.5-.6h-5.5v23.9h2.5v-11h2.3c3 0 5.7-.1 7.4-1.2 1.8-1.1 2.8-3 2.8-5.2-.1-2.8-1.6-5-4-5.9m-.1 8.8c-1 .8-2.5 1-4.7 1h-3.8v-7.9h4.1c1.7 0 3.2.1 4.3.9.9.7 1.5 1.9 1.5 3.1 0 1-.6 2.2-1.4 2.9M3555.6 12.4h-.6l-11.3 23.8v.1h2.8l3.7-7.8h10.2l3.7 7.8h2.7l-11.2-23.9zm3.6 13.6h-7.9l4-8.4 3.9 8.4zM3590.3 30.5l-15.7-18.1h-.6v23.8h2.5V18.4l15.6 17.8h.7V12.4h-2.5zM3613.8 11.8c-6.9 0-12.4 5.5-12.4 12.6 0 7 5.5 12.4 12.6 12.4 7 0 12.6-5.5 12.6-12.5 0-3.4-1.3-6.6-3.7-8.9-2.4-2.3-5.6-3.6-9.1-3.6m10.1 12.5c0 5.8-4.3 10.1-10 10.1-5.6 0-9.9-4.4-9.9-10 0-6.4 5-10.2 9.9-10.2 2.6 0 5.1 1 7 2.8 1.9 1.9 3 4.5 3 7.3M3649.5 21.7c.5-1.1.7-1.8.7-3 0-2.7-1.5-4.8-3.9-5.8-1.1-.4-2.9-.6-5.5-.6h-5.5v23.9h2.5v-11h1.3l8.5 11h3.1l-8.6-11c4 0 6.2-1.1 7.4-3.5m-1.9-2.9c0 1.2-.5 2.3-1.4 3-1.1.9-2.9 1-4.6 1h-3.9v-7.9h4.8c3.2-.1 5.1 1.4 5.1 3.9M3669.3 12.4h-.6l-11.3 23.8v.1h2.8l3.7-7.8h10.2l3.7 7.8h2.7l-11.2-23.9zm3.6 13.6h-7.9l4-8.4 3.9 8.4zM3710.7 12.4h-.5l-9.5 19.4-9.6-19.4h-.5l-3.4 23.8h2.5l2.2-16.9 8.5 16.9h.7l8.3-16.8 2.3 16.8h2.4l-3.4-23.8zM3722.6 12.4h2.5v23.9h-2.5zM3749.8 12.5l.1-.1h-3.3l-9.4 8.8v-8.8h-2.5v23.8h2.5V25.3l10.3 10.9h3.3l-12.3-13.1zM3769 12.4h-.6l-11.3 23.8v.1h2.8l3.7-7.8h10.2l3.7 7.8h2.7L3769 12.4zm3.6 13.6h-7.9l4-8.4 3.9 8.4zM3780.9 11.8h1.1v4.6h.6v-4.6h1.2v-.6h-2.9zM3790 11.3v-.1h-.2l-2 4.1-2-4v-.1h-.2l-.7 5.2h.6l.5-3.5 1.7 3.5h.2l1.7-3.5.5 3.5h.6zM3847.9 39.2l29.4 4.1c0 2.6 2.1 4.7 4.7 4.7s4.7-2.1 4.7-4.7-2.1-4.7-4.7-4.7c-1.1 0-2.1.4-2.8 1l-32.1-32c.6-.8.9-1.8.9-2.8 0-2.6-2.1-4.7-4.7-4.7s-4.7 2.1-4.7 4.7c0 1.1.4 2 .9 2.8l-32.1 32c-.8-.6-1.8-1-2.8-1-2.6 0-4.7 2.1-4.7 4.7s2.1 4.7 4.7 4.7 4.7-2.1 4.7-4.7c0-1.1-.4-2-.9-2.8l32.1-32c.8.6 1.8 1 2.8 1s2.1-.4 2.8-1l32.1 32c-.3.5-.6 1-.8 1.5l-29.4-4.1c0-2.6-2.1-4.7-4.7-4.7s-4.7 2.1-4.7 4.7 2.1 4.7 4.7 4.7c2.3 0 4.1-1.4 4.6-3.4M3917 13c-1.1-.4-2.9-.6-5.5-.6h-5.5v23.9h2.5v-11h2.3c3 0 5.7-.1 7.4-1.2 1.8-1.1 2.8-3 2.8-5.2-.1-2.8-1.6-5-4-5.9m-.1 8.8c-1 .8-2.5 1-4.7 1h-3.8v-7.9h4.1c1.7 0 3.2.1 4.3.9.9.7 1.5 1.9 1.5 3.1 0 1-.5 2.2-1.4 2.9M3935.9 12.4h-.6L3924 36.1v.1h2.8l3.7-7.8h10.2l3.7 7.8h2.7l-11.2-23.8zm3.6 13.6h-7.9l4-8.4 3.9 8.4zM3970.6 30.5l-15.7-18.1h-.6v23.8h2.5V18.4l15.6 17.8h.7V12.4h-2.5zM3994.1 11.8c-6.9 0-12.4 5.5-12.4 12.6 0 7 5.5 12.4 12.6 12.4 7 0 12.6-5.5 12.6-12.5 0-3.4-1.3-6.6-3.7-8.9-2.4-2.3-5.6-3.6-9.1-3.6m10.1 12.5c0 5.8-4.3 10.1-10 10.1-5.6 0-9.9-4.4-9.9-10 0-6.4 5-10.2 9.9-10.2 2.6 0 5.1 1 7 2.8 2 1.9 3 4.5 3 7.3M4029.8 21.7c.5-1.1.7-1.8.7-3 0-2.7-1.5-4.8-3.9-5.8-1.1-.4-2.9-.6-5.5-.6h-5.5v23.9h2.5v-11h1.3l8.5 11h3.1l-8.6-11c4 0 6.2-1.1 7.4-3.5m-1.9-2.9c0 1.2-.5 2.3-1.4 3-1.1.9-2.9 1-4.6 1h-3.9v-7.9h4.8c3.3-.1 5.1 1.4 5.1 3.9M4049.6 12.4h-.6l-11.3 23.8v.1h2.8l3.7-7.8h10.2l3.7 7.8h2.7l-11.2-23.9zm3.6 13.6h-7.9l4-8.4 3.9 8.4zM4091 12.4h-.4l-9.6 19.4-9.6-19.4h-.5l-3.3 23.8h-.1 2.5l2.3-16.9 8.4 16.9h.7l8.3-16.8 2.3 16.8h2.4l-3.3-23.8zM4102.9 12.4h2.5v23.9h-2.5zM4130.2 12.5l.1-.1h-3.4l-9.4 8.8v-8.8h-2.5v23.8h2.5V25.3l10.3 10.9h3.3l-12.3-13.1zM4149.3 12.4h-.6l-11.3 23.8v.1h2.8l3.7-7.8h10.2l3.7 7.8h2.7l-11.2-23.9zm3.6 13.6h-7.9l4-8.4 3.9 8.4zM4161.2 11.8h1.1v4.6h.7v-4.6h1.1v-.6h-2.9zM4170.3 11.3v-.1h-.2l-2 4.1-2-4v-.1h-.2l-.7 5.2h.6l.5-3.5 1.7 3.5h.2l1.7-3.5.5 3.5h.6zM4228.3 39.2l29.4 4.1c0 2.6 2.1 4.7 4.7 4.7s4.7-2.1 4.7-4.7-2.1-4.7-4.7-4.7c-1.1 0-2.1.4-2.8 1l-32.1-32c.6-.8.9-1.8.9-2.8 0-2.6-2.1-4.7-4.7-4.7s-4.7 2.1-4.7 4.7c0 1.1.4 2 .9 2.8l-32.1 32c-.8-.6-1.8-1-2.8-1-2.6 0-4.7 2.1-4.7 4.7s2.1 4.7 4.7 4.7 4.7-2.1 4.7-4.7c0-1.1-.4-2-.9-2.8l32.1-32c.8.6 1.8 1 2.8 1 1.1 0 2.1-.4 2.8-1l32.1 32c-.3.5-.6 1-.8 1.5l-29.4-4.1c0-2.6-2.1-4.7-4.7-4.7s-4.7 2.1-4.7 4.7 2.1 4.7 4.7 4.7c2.2 0 4-1.4 4.6-3.4M4297.3 13c-1.1-.4-2.9-.6-5.5-.6h-5.5v23.9h2.5v-11h2.3c3 0 5.7-.1 7.4-1.2 1.8-1.1 2.8-3 2.8-5.2-.1-2.8-1.5-5-4-5.9m0 8.8c-1 .8-2.5 1-4.7 1h-3.8v-7.9h4.1c1.7 0 3.2.1 4.3.9.9.7 1.5 1.9 1.5 3.1-.1 1-.6 2.2-1.4 2.9M4316.2 12.4h-.6l-11.3 23.8v.1h2.8l3.7-7.8h10.2l3.7 7.8h2.7l-11.2-23.9zm3.6 13.6h-7.9l4-8.4 3.9 8.4zM4350.9 30.5l-15.6-18.1h-.6v23.8h2.5V18.4l15.6 17.8h.6V12.4h-2.5zM4374.4 11.8c-6.9 0-12.4 5.5-12.4 12.6 0 7 5.5 12.4 12.6 12.4 7 0 12.6-5.5 12.6-12.5 0-3.4-1.3-6.6-3.7-8.9-2.4-2.3-5.6-3.6-9.1-3.6m10.2 12.5c0 5.8-4.3 10.1-10 10.1-5.6 0-9.9-4.4-9.9-10 0-6.4 5-10.2 9.9-10.2 2.6 0 5.1 1 7 2.8 1.9 1.9 3 4.5 3 7.3M4410.1 21.7c.5-1.1.7-1.8.7-3 0-2.7-1.5-4.8-3.9-5.8-1.1-.4-2.9-.6-5.5-.6h-5.5v23.9h2.5v-11h1.3l8.5 11h3.1l-8.6-11c4 0 6.3-1.1 7.4-3.5m-1.9-2.9c0 1.2-.5 2.3-1.4 3-1.1.9-2.9 1-4.6 1h-3.9v-7.9h4.8c3.3-.1 5.1 1.4 5.1 3.9M4429.9 12.4h-.6L4418 36.1v.1h2.8l3.7-7.8h10.2l3.7 7.8h2.7l-11.2-23.8zm3.6 13.6h-7.9l4-8.4 3.9 8.4zM4471.4 12.4h-.5l-9.5 19.4-9.6-19.4h-.5l-3.4 23.8h2.4l2.3-16.9 8.4 16.9h.7l8.3-16.8 2.3 16.8h2.5l-3.4-23.8zM4483.2 12.4h2.5v23.9h-2.5zM4510.5 12.5l.1-.1h-3.4l-9.4 8.8v-8.8h-2.5v23.8h2.5V25.3l10.3 10.9h3.4l-12.4-13.1zM4529.6 12.4h-.6l-11.3 23.8v.1h2.8l3.7-7.8h10.2l3.7 7.8h2.7l-11.2-23.9zm3.6 13.6h-7.9l4-8.4 3.9 8.4zM4541.5 11.8h1.1v4.6h.7v-4.6h1.1v-.6h-2.9zM4550.6 11.3v-.1h-.2l-2 4.1-2-4v-.1h-.2l-.7 5.2h.6l.5-3.5 1.7 3.5h.2l1.7-3.5.5 3.5h.6zM1567.7 39.2l29.4 4.1c0 2.6 2.1 4.7 4.7 4.7s4.7-2.1 4.7-4.7-2.1-4.7-4.7-4.7c-1.1 0-2.1.4-2.8 1l-32.1-32c.6-.8.9-1.8.9-2.8 0-2.6-2.1-4.7-4.7-4.7s-4.7 2.1-4.7 4.7c0 1.1.4 2 .9 2.8l-32.1 32c-.8-.6-1.8-1-2.8-1-2.6 0-4.7 2.1-4.7 4.7s2.1 4.7 4.7 4.7 4.7-2.1 4.7-4.7c0-1.1-.4-2-.9-2.8l32.1-32c.8.6 1.8 1 2.8 1 1.1 0 2.1-.4 2.8-1l32.1 32c-.3.5-.6 1-.8 1.5l-29.4-4.1c0-2.6-2.1-4.7-4.7-4.7s-4.7 2.1-4.7 4.7 2.1 4.7 4.7 4.7c2.2 0 4-1.4 4.6-3.4M1636.7 13c-1.1-.4-2.9-.6-5.5-.6h-5.5v23.9h2.5v-11h2.3c3 0 5.7-.1 7.4-1.2 1.8-1.1 2.8-3 2.8-5.2-.1-2.8-1.5-5-4-5.9m0 8.8c-1 .8-2.5 1-4.7 1h-3.8v-7.9h4.1c1.7 0 3.2.1 4.3.9.9.7 1.5 1.9 1.5 3.1-.1 1-.6 2.2-1.4 2.9M1655.6 12.4h-.6l-11.3 23.8v.1h2.8l3.7-7.8h10.2l3.7 7.8h2.7l-11.2-23.9zm3.6 13.6h-7.9l4-8.4 3.9 8.4zM1690.3 30.5l-15.6-18.1h-.6v23.8h2.5V18.4l15.6 17.8h.6V12.4h-2.5zM1713.8 11.8c-6.9 0-12.4 5.5-12.4 12.6 0 7 5.5 12.4 12.6 12.4 7 0 12.6-5.5 12.6-12.5 0-3.4-1.3-6.6-3.7-8.9-2.4-2.3-5.6-3.6-9.1-3.6m10.2 12.5c0 5.8-4.3 10.1-10 10.1-5.6 0-9.9-4.4-9.9-10 0-6.4 5-10.2 9.9-10.2 2.6 0 5.1 1 7 2.8 1.9 1.9 3 4.5 3 7.3M1749.5 21.7c.5-1.1.7-1.8.7-3 0-2.7-1.5-4.8-3.9-5.8-1.1-.4-2.9-.6-5.5-.6h-5.5v23.9h2.5v-11h1.3l8.5 11h3.1l-8.6-11c4 0 6.2-1.1 7.4-3.5m-1.9-2.9c0 1.2-.5 2.3-1.4 3-1.1.9-2.9 1-4.6 1h-3.9v-7.9h4.8c3.3-.1 5.1 1.4 5.1 3.9M1769.3 12.4h-.6l-11.3 23.8v.1h2.8l3.7-7.8h10.2l3.7 7.8h2.7l-11.2-23.9zm3.6 13.6h-7.9l4-8.4 3.9 8.4zM1810.8 12.4h-.5l-9.5 19.4-9.6-19.4h-.5l-3.4 23.8h2.4l2.3-16.9 8.4 16.9h.7l8.3-16.8 2.3 16.8h2.4l-3.3-23.8zM1822.6 12.4h2.5v23.9h-2.5zM1849.9 12.5l.1-.1h-3.4l-9.4 8.8v-8.8h-2.5v23.8h2.5V25.3l10.3 10.9h3.4l-12.4-13.1zM1869 12.4h-.6l-11.3 23.8v.1h2.8l3.7-7.8h10.2l3.7 7.8h2.7L1869 12.4zm3.6 13.6h-7.9l4-8.4 3.9 8.4zM1880.9 11.8h1.1v4.6h.7v-4.6h1.1v-.6h-2.9zM1890 11.3v-.1h-.2l-2 4.1-2-4v-.1h-.2l-.7 5.2h.6l.5-3.5 1.7 3.5h.2l1.7-3.5.5 3.5h.6zM1948 39.2l29.4 4.1c0 2.6 2.1 4.7 4.7 4.7s4.7-2.1 4.7-4.7-2.1-4.7-4.7-4.7c-1.1 0-2.1.4-2.8 1l-32.1-32c.6-.8.9-1.8.9-2.8 0-2.6-2.1-4.7-4.7-4.7s-4.7 2.1-4.7 4.7c0 1.1.4 2 .9 2.8l-32.1 32c-.8-.6-1.8-1-2.8-1-2.6 0-4.7 2.1-4.7 4.7s2.1 4.7 4.7 4.7 4.7-2.1 4.7-4.7c0-1.1-.4-2-.9-2.8l32.1-32c.8.6 1.8 1 2.8 1 1.1 0 2.1-.4 2.8-1l32.1 32c-.3.5-.6 1-.8 1.5l-29.4-4.1c0-2.6-2.1-4.7-4.7-4.7s-4.7 2.1-4.7 4.7 2.1 4.7 4.7 4.7c2.2 0 4-1.4 4.6-3.4M2017 13c-1.1-.4-2.9-.6-5.5-.6h-5.5v23.9h2.5v-11h2.3c3 0 5.7-.1 7.4-1.2 1.8-1.1 2.8-3 2.8-5.2-.1-2.8-1.5-5-4-5.9m0 8.8c-1 .8-2.5 1-4.7 1h-3.8v-7.9h4.1c1.7 0 3.2.1 4.3.9.9.7 1.5 1.9 1.5 3.1-.1 1-.6 2.2-1.4 2.9M2035.9 12.4h-.6L2024 36.1v.1h2.8l3.7-7.8h10.2l3.7 7.8h2.7l-11.2-23.8zm3.6 13.6h-7.9l4-8.4 3.9 8.4zM2070.6 30.5 2055 12.4h-.6v23.8h2.5V18.4l15.6 17.8h.6V12.4h-2.5zM2094.1 11.8c-6.9 0-12.4 5.5-12.4 12.6 0 7 5.5 12.4 12.6 12.4 7 0 12.6-5.5 12.6-12.5 0-3.4-1.3-6.6-3.7-8.9-2.4-2.3-5.6-3.6-9.1-3.6m10.2 12.5c0 5.8-4.3 10.1-10 10.1-5.6 0-9.9-4.4-9.9-10 0-6.4 5-10.2 9.9-10.2 2.6 0 5.1 1 7 2.8 1.9 1.9 3 4.5 3 7.3M2129.9 21.7c.5-1.1.7-1.8.7-3 0-2.7-1.5-4.8-3.9-5.8-1.1-.4-2.9-.6-5.5-.6h-5.5v23.9h2.5v-11h1.3l8.5 11h3.1l-8.6-11c3.9 0 6.2-1.1 7.4-3.5m-1.9-2.9c0 1.2-.5 2.3-1.4 3-1.1.9-2.9 1-4.6 1h-3.9v-7.9h4.8c3.2-.1 5.1 1.4 5.1 3.9M2149.6 12.4h-.6l-11.3 23.8v.1h2.8l3.7-7.8h10.2l3.7 7.8h2.7l-11.2-23.9zm3.6 13.6h-7.9l4-8.4 3.9 8.4zM2191.1 12.4h-.5l-9.5 19.4-9.6-19.4h-.5l-3.4 23.8h2.4l2.3-16.9 8.4 16.9h.7l8.3-16.8 2.3 16.8h2.5l-3.4-23.8zM2202.9 12.4h2.5v23.9h-2.5zM2230.2 12.5l.1-.1h-3.4l-9.4 8.8v-8.8h-2.5v23.8h2.5V25.3l10.4 10.9h3.3l-12.4-13.1zM2249.3 12.4h-.6l-11.3 23.8v.1h2.8l3.7-7.8h10.2l3.7 7.8h2.7l-11.2-23.9zm3.6 13.6h-7.9l4-8.4 3.9 8.4zM2261.2 11.8h1.2v4.6h.6v-4.6h1.1v-.6h-2.9zM2270.3 11.3v-.1h-.2l-2 4.1-2-4v-.1h-.1l-.8 5.2h.6l.5-3.5 1.7 3.5h.2l1.8-3.5.4 3.5h.6zM2328.3 39.2l29.4 4.1c0 2.6 2.1 4.7 4.7 4.7s4.7-2.1 4.7-4.7-2.1-4.7-4.7-4.7c-1.1 0-2.1.4-2.8 1l-32.1-32c.6-.8.9-1.8.9-2.8 0-2.6-2.1-4.7-4.7-4.7s-4.7 2.1-4.7 4.7c0 1.1.4 2 .9 2.8l-32.1 32c-.8-.6-1.8-1-2.8-1-2.6 0-4.7 2.1-4.7 4.7s2.1 4.7 4.7 4.7 4.7-2.1 4.7-4.7c0-1.1-.4-2-.9-2.8l32.1-32c.8.6 1.8 1 2.8 1s2.1-.4 2.8-1l32.1 32c-.3.5-.6 1-.8 1.5l-29.4-4.1c0-2.6-2.1-4.7-4.7-4.7s-4.7 2.1-4.7 4.7 2.1 4.7 4.7 4.7c2.2 0 4-1.4 4.6-3.4M2397.3 13c-1.1-.4-2.9-.6-5.5-.6h-5.5v23.9h2.5v-11h2.3c3 0 5.7-.1 7.4-1.2 1.8-1.1 2.8-3 2.8-5.2 0-2.8-1.5-5-4-5.9m0 8.8c-1 .8-2.5 1-4.7 1h-3.8v-7.9h4.1c1.7 0 3.2.1 4.3.9.9.7 1.5 1.9 1.5 3.1 0 1-.6 2.2-1.4 2.9M2416.2 12.4h-.6l-11.3 23.8v.1h2.8l3.7-7.8h10.2l3.7 7.8h2.7l-11.2-23.9zm3.6 13.6h-7.9l4-8.4 3.9 8.4zM2450.9 30.5l-15.6-18.1h-.6v23.8h2.5V18.4l15.6 17.8h.6V12.4h-2.5zM2474.4 11.8c-6.9 0-12.4 5.5-12.4 12.6 0 7 5.5 12.4 12.6 12.4 7 0 12.6-5.5 12.6-12.5 0-3.4-1.3-6.6-3.7-8.9-2.3-2.3-5.6-3.6-9.1-3.6m10.2 12.5c0 5.8-4.3 10.1-10 10.1-5.6 0-9.9-4.4-9.9-10 0-6.4 5-10.2 9.9-10.2 2.6 0 5.1 1 7 2.8 1.9 1.9 3 4.5 3 7.3M2510.2 21.7c.5-1.1.7-1.8.7-3 0-2.7-1.5-4.8-3.9-5.8-1.1-.4-2.9-.6-5.5-.6h-5.5v23.9h2.5v-11h1.3l8.5 11h3.1l-8.6-11c3.9 0 6.2-1.1 7.4-3.5m-1.9-2.9c0 1.2-.5 2.3-1.4 3-1.1.9-2.9 1-4.6 1h-3.9v-7.9h4.8c3.2-.1 5.1 1.4 5.1 3.9M2529.9 12.4h-.6L2518 36.2v.1h2.8l3.7-7.8h10.2l3.7 7.8h2.7l-11.2-23.9zm3.6 13.6h-7.9l4-8.4 3.9 8.4zM2571.4 12.4h-.5l-9.5 19.4-9.6-19.4h-.5l-3.4 23.8h2.4l2.3-16.9 8.4 16.9h.7l8.4-16.8 2.2 16.8h2.5l-3.4-23.8zM2583.2 12.4h2.5v23.9h-2.5zM2610.5 12.5l.1-.1h-3.4l-9.4 8.8v-8.8h-2.5v23.8h2.5V25.3l10.4 10.9h3.3l-12.4-13.1zM2629.6 12.4h-.6l-11.3 23.8v.1h2.8l3.7-7.8h10.2l3.7 7.8h2.7l-11.2-23.9zm3.6 13.6h-7.9l4-8.4 3.9 8.4zM2641.5 11.8h1.2v4.6h.6v-4.6h1.1v-.6h-2.9zM2650.6 11.3v-.1h-.1l-2 4.1-2-4v-.1h-.2l-.8 5.2h.7l.4-3.5 1.8 3.5h.2l1.7-3.5.4 3.5h.7zM2708.6 39.2l29.4 4.1c0 2.6 2.1 4.7 4.7 4.7s4.7-2.1 4.7-4.7-2.1-4.7-4.7-4.7c-1.1 0-2.1.4-2.8 1l-32.1-32c.6-.8.9-1.8.9-2.8 0-2.6-2.1-4.7-4.7-4.7s-4.7 2.1-4.7 4.7c0 1.1.4 2 .9 2.8l-32.1 32c-.8-.6-1.8-1-2.8-1-2.6 0-4.7 2.1-4.7 4.7s2.1 4.7 4.7 4.7 4.7-2.1 4.7-4.7c0-1.1-.4-2-.9-2.8l32.1-32c.8.6 1.8 1 2.8 1 1.1 0 2.1-.4 2.8-1l32.1 32c-.3.5-.6 1-.8 1.5l-29.4-4.1c0-2.6-2.1-4.7-4.7-4.7s-4.7 2.1-4.7 4.7 2.1 4.7 4.7 4.7c2.2 0 4.1-1.4 4.6-3.4M2777.6 13c-1.1-.4-2.9-.6-5.5-.6h-5.5v23.9h2.5v-11h2.3c3 0 5.7-.1 7.4-1.2 1.8-1.1 2.8-3 2.8-5.2 0-2.8-1.5-5-4-5.9m0 8.8c-1 .8-2.5 1-4.7 1h-3.8v-7.9h4.1c1.7 0 3.2.1 4.3.9.9.7 1.5 1.9 1.5 3.1 0 1-.6 2.2-1.4 2.9M2796.5 12.4h-.6l-11.3 23.8v.1h2.8l3.7-7.8h10.2l3.7 7.8h2.7l-11.2-23.9zm3.6 13.6h-7.9l4-8.4 3.9 8.4zM2831.2 30.5l-15.6-18.1h-.6v23.8h2.5V18.4l15.6 17.8h.6V12.4h-2.5zM2854.8 11.8c-7 0-12.4 5.5-12.4 12.6 0 7 5.5 12.4 12.6 12.4 7 0 12.6-5.5 12.6-12.5 0-3.4-1.3-6.6-3.7-8.9-2.4-2.3-5.6-3.6-9.1-3.6m10.1 12.5c0 5.8-4.3 10.1-10 10.1-5.6 0-9.9-4.4-9.9-10 0-6.4 5-10.2 9.9-10.2 2.6 0 5.1 1 7 2.8 1.9 1.9 3 4.5 3 7.3M2890.5 21.7c.5-1.1.7-1.8.7-3 0-2.7-1.5-4.8-3.9-5.8-1.1-.4-2.9-.6-5.5-.6h-5.5v23.9h2.5v-11h1.3l8.5 11h3.1l-8.6-11c4 0 6.2-1.1 7.4-3.5m-1.9-2.9c0 1.2-.5 2.3-1.4 3-1.1.9-2.9 1-4.6 1h-3.9v-7.9h4.8c3.2-.1 5.1 1.4 5.1 3.9M2910.3 12.4h-.6l-11.3 23.8v.1h2.8l3.7-7.8h10.2l3.7 7.8h2.7l-11.2-23.9zm3.6 13.6h-7.9l4-8.4 3.9 8.4zM2951.7 12.4h-.5l-9.5 19.4-9.6-19.4h-.5l-3.4 23.8h2.5l2.2-16.9 8.5 16.9h.6l8.4-16.8 2.3 16.8h2.4l-3.4-23.8zM2963.6 12.4h2.5v23.9h-2.5zM2990.8 12.5l.1-.1h-3.3l-9.5 8.8v-8.8h-2.5v23.8h2.5V25.3l10.4 10.9h3.3l-12.3-13.1zM3010 12.4h-.6l-11.3 23.8v.1h2.8l3.7-7.8h10.2l3.7 7.8h2.7L3010 12.4zm3.6 13.6h-7.9l4-8.4 3.9 8.4zM3021.9 11.8h1.1v4.6h.6v-4.6h1.1v-.6h-2.8zM3031 11.3l-.1-.1h-.1l-2 4.1-2-4v-.1h-.2l-.7 5.2h.6l.4-3.5 1.8 3.5h.2l1.7-3.5.5 3.5h.6zM48 39.2l29.4 4.1c0 2.6 2.1 4.7 4.7 4.7s4.7-2.1 4.7-4.7-2.1-4.7-4.7-4.7c-1.1 0-2.1.4-2.8 1l-32.1-32c.6-.8.9-1.8.9-2.8 0-2.6-2.1-4.7-4.7-4.7s-4.7 2.1-4.7 4.7c0 1.1.4 2 .9 2.8l-32.1 32c-.8-.6-1.8-1-2.8-1-2.6 0-4.7 2.1-4.7 4.7S2.1 48 4.7 48s4.7-2.1 4.7-4.7c0-1.1-.4-2-.9-2.8l32.1-32c.8.6 1.8 1 2.8 1s2.1-.4 2.8-1l32.1 32c-.3.5-.6 1-.8 1.5l-29.4-4.1c0-2.6-2.1-4.7-4.7-4.7s-4.7 2.1-4.7 4.7 2.1 4.7 4.7 4.7c2.2 0 4-1.4 4.6-3.4M117 13c-1.1-.4-2.9-.6-5.5-.6H106v23.9h2.5v-11h2.3c3 0 5.7-.1 7.4-1.2 1.8-1.1 2.8-3 2.8-5.2 0-2.8-1.5-5-4-5.9m0 8.8c-1 .8-2.5 1-4.7 1h-3.8v-7.9h4.1c1.7 0 3.2.1 4.3.9.9.7 1.5 1.9 1.5 3.1 0 1-.6 2.2-1.4 2.9M135.9 12.4h-.6L124 36.1v.1h2.8l3.7-7.8h10.2l3.7 7.8h2.7l-11.2-23.8zm3.6 13.6h-7.9l4-8.4 3.9 8.4zM170.6 30.5 155 12.4h-.6v23.8h2.5V18.4l15.6 17.8h.6V12.4h-2.5zM194.2 11.8c-6.9 0-12.4 5.5-12.4 12.6 0 7 5.5 12.4 12.6 12.4 7 0 12.6-5.5 12.6-12.5 0-3.4-1.3-6.6-3.7-8.9-2.4-2.3-5.6-3.6-9.1-3.6m10.1 12.5c0 5.8-4.3 10.1-10 10.1-5.6 0-9.9-4.4-9.9-10 0-6.4 5-10.2 9.9-10.2 2.6 0 5.1 1 7 2.8 1.9 1.9 3 4.5 3 7.3M229.9 21.7c.5-1.1.7-1.8.7-3 0-2.7-1.5-4.8-3.9-5.8-1.1-.4-2.9-.6-5.5-.6h-5.5v23.9h2.5v-11h1.3l8.5 11h3.1l-8.6-11c4 0 6.2-1.1 7.4-3.5m-1.9-2.9c0 1.2-.5 2.3-1.4 3-1.1.9-2.9 1-4.6 1h-3.9v-7.9h4.8c3.2-.1 5.1 1.4 5.1 3.9M249.7 12.4h-.7l-11.3 23.8v.1h2.8l3.7-7.8h10.2l3.7 7.8h2.7l-11.1-23.9zm3.6 13.6h-7.9l4-8.4 3.9 8.4zM291.1 12.4h-.5l-9.5 19.4-9.6-19.4h-.5l-3.4 23.8h2.5l2.2-16.9 8.5 16.9h.6l8.4-16.8 2.3 16.8h2.4l-3.4-23.8zM302.9 12.4h2.5v23.9h-2.5zM330.2 12.5l.1-.1h-3.4l-9.4 8.8v-8.8H315v23.8h2.5V25.3l10.4 10.9h3.3l-12.3-13.1zM349.4 12.4h-.6l-11.3 23.8v.1h2.8l3.7-7.8h10.2l3.7 7.8h2.7l-11.2-23.9zM353 26h-8l4-8.4 4 8.4zM361.3 11.8h1.1v4.6h.6v-4.6h1.1v-.6h-2.8zM370.3 11.3v-.1h-.1l-2 4.1-2-4v-.1h-.2l-.7 5.2h.6l.4-3.5 1.8 3.5h.2l1.7-3.5.5 3.5h.6zM428.3 39.2l29.4 4.1c0 2.6 2.1 4.7 4.7 4.7s4.7-2.1 4.7-4.7-2.1-4.7-4.7-4.7c-1.1 0-2.1.4-2.8 1l-32.1-32c.6-.8.9-1.8.9-2.8 0-2.6-2.1-4.7-4.7-4.7s-4.7 2-4.7 4.6c0 1.1.4 2 .9 2.8l-32.1 32c-.8-.6-1.8-1-2.8-1-2.6 0-4.7 2.1-4.7 4.7s2.1 4.7 4.7 4.7 4.7-2.1 4.7-4.7c0-1.1-.4-2-.9-2.8l32.1-32c.8.6 1.8 1 2.8 1s2.1-.4 2.8-1l32.1 32c-.3.5-.6 1-.8 1.5l-29.4-4.1c0-2.6-2.1-4.7-4.7-4.7s-4.7 2.1-4.7 4.7 2.1 4.7 4.7 4.7c2.2.1 4.1-1.3 4.6-3.3M497.4 13c-1.1-.4-2.9-.6-5.5-.6h-5.5v23.9h2.5v-11h2.3c3 0 5.7-.1 7.4-1.2 1.8-1.1 2.8-3 2.8-5.2-.1-2.8-1.6-5-4-5.9m-.1 8.8c-1 .8-2.5 1-4.7 1h-3.8v-7.9h4.1c1.7 0 3.2.1 4.3.9.9.7 1.5 1.9 1.5 3.1 0 1-.6 2.2-1.4 2.9M516.3 12.4h-.6l-11.3 23.8v.1h2.8l3.7-7.8H521l3.7 7.8h2.7l-11.1-23.9zm3.6 13.6H512l4-8.4 3.9 8.4zM551 30.5l-15.7-18.1h-.6v23.8h2.5V18.4l15.6 17.8h.7V12.4H551zM574.5 11.8c-6.9 0-12.4 5.5-12.4 12.6 0 7 5.5 12.4 12.6 12.4 7 0 12.6-5.5 12.6-12.5 0-3.4-1.3-6.6-3.7-8.9-2.4-2.3-5.6-3.6-9.1-3.6m10.1 12.5c0 5.8-4.3 10.1-10 10.1-5.6 0-9.9-4.4-9.9-10 0-6.4 5-10.2 9.9-10.2 2.6 0 5.1 1 7 2.8 1.9 1.9 3 4.5 3 7.3M610.2 21.7c.5-1.1.7-1.8.7-3 0-2.7-1.5-4.8-3.9-5.8-1.1-.4-2.9-.6-5.5-.6H596v23.9h2.5v-11h1.3l8.5 11h3.1l-8.6-11c4 0 6.2-1.1 7.4-3.5m-1.9-2.9c0 1.2-.5 2.3-1.4 3-1.1.9-2.9 1-4.6 1h-3.9v-7.9h4.8c3.2-.1 5.1 1.4 5.1 3.9M630 12.4h-.6l-11.3 23.8v.1h2.8l3.7-7.8h10.2l3.7 7.8h2.7L630 12.4zm3.6 13.6h-7.9l4-8.4 3.9 8.4zM671.4 12.4h-.5l-9.5 19.4-9.6-19.4h-.5l-3.4 23.8h2.5l2.2-16.9 8.5 16.9h.7l8.3-16.8 2.3 16.8h2.4l-3.4-23.8zM683.3 12.4h2.5v23.9h-2.5zM710.5 12.5l.2-.1h-3.4l-9.4 8.8v-8.8h-2.5v23.8h2.5V25.3l10.3 10.9h3.3l-12.3-13.1zM729.7 12.4h-.7l-11.3 23.8v.1h2.8l3.7-7.8h10.2l3.7 7.8h2.7l-11.1-23.9zm3.6 13.6h-7.9l4-8.4 3.9 8.4zM741.6 11.8h1.1v4.6h.6v-4.6h1.2v-.6h-2.9zM750.7 11.3v-.1h-.2l-2 4.1-2-4v-.1h-.2l-.7 5.2h.6l.5-3.5 1.7 3.5h.2l1.7-3.5.5 3.5h.6zM808.7 39.2l29.4 4.1c0 2.6 2.1 4.7 4.7 4.7s4.7-2.1 4.7-4.7-2.1-4.7-4.7-4.7c-1.1 0-2.1.4-2.8 1l-32.1-32c.6-.8.9-1.8.9-2.8 0-2.6-2.1-4.7-4.7-4.7s-4.7 2.1-4.7 4.7c0 1.1.4 2 .9 2.8l-32.1 32c-.8-.6-1.8-1-2.8-1-2.6 0-4.7 2.1-4.7 4.7s2.1 4.7 4.7 4.7 4.7-2.1 4.7-4.7c0-1.1-.4-2-.9-2.8l32.1-32c.8.6 1.8 1 2.8 1s2.1-.4 2.8-1l32.1 32c-.3.5-.6 1-.8 1.5l-29.4-4.1c0-2.6-2.1-4.7-4.7-4.7s-4.7 2.1-4.7 4.7 2.1 4.7 4.7 4.7c2.2 0 4-1.4 4.6-3.4M877.7 13c-1.1-.4-2.9-.6-5.5-.6h-5.5v23.9h2.5v-11h2.3c3 0 5.7-.1 7.4-1.2 1.8-1.1 2.8-3 2.8-5.2-.1-2.8-1.6-5-4-5.9m0 8.8c-1 .8-2.5 1-4.7 1h-3.8v-7.9h4.1c1.7 0 3.2.1 4.3.9.9.7 1.5 1.9 1.5 3.1-.1 1-.6 2.2-1.4 2.9M896.6 12.4h-.6l-11.3 23.8v.1h2.8l3.7-7.8h10.2l3.7 7.8h2.7l-11.2-23.9zm3.6 13.6h-7.9l4-8.4 3.9 8.4zM931.3 30.5l-15.7-18.1h-.6v23.8h2.5V18.4l15.6 17.8h.7V12.4h-2.5zM954.8 11.8c-6.9 0-12.4 5.5-12.4 12.6 0 7 5.5 12.4 12.6 12.4 7 0 12.6-5.5 12.6-12.5 0-3.4-1.3-6.6-3.7-8.9-2.4-2.3-5.6-3.6-9.1-3.6m10.1 12.5c0 5.8-4.3 10.1-10 10.1-5.6 0-9.9-4.4-9.9-10 0-6.4 5-10.2 9.9-10.2 2.6 0 5.1 1 7 2.8 2 1.9 3 4.5 3 7.3M990.5 21.7c.5-1.1.7-1.8.7-3 0-2.7-1.5-4.8-3.9-5.8-1.1-.4-2.9-.6-5.5-.6h-5.5v23.9h2.5v-11h1.3l8.5 11h3.1l-8.6-11c4 0 6.2-1.1 7.4-3.5m-1.9-2.9c0 1.2-.5 2.3-1.4 3-1.1.9-2.9 1-4.6 1h-3.9v-7.9h4.8c3.3-.1 5.1 1.4 5.1 3.9M1010.3 12.4h-.6l-11.3 23.8v.1h2.8l3.7-7.8h10.2l3.7 7.8h2.7l-11.2-23.9zm3.6 13.6h-7.9l4-8.4 3.9 8.4zM1051.8 12.4h-.5l-9.6 19.4-9.6-19.4h-.5l-3.3 23.8h2.4l2.3-16.9 8.4 16.9h.7l8.3-16.8 2.3 16.8h2.4l-3.3-23.8zM1063.6 12.4h2.5v23.9h-2.5zM1090.9 12.5l.1-.1h-3.4l-9.4 8.8v-8.8h-2.5v23.8h2.5V25.3l10.3 10.9h3.3l-12.3-13.1zM1110 12.4h-.6l-11.3 23.8v.1h2.8l3.7-7.8h10.2l3.7 7.8h2.7L1110 12.4zm3.6 13.6h-7.9l4-8.4 3.9 8.4zM1121.9 11.8h1.1v4.6h.7v-4.6h1.1v-.6h-2.9zM1131 11.3v-.1h-.2l-2 4.1-2-4v-.1h-.2l-.7 5.2h.6l.5-3.5 1.7 3.5h.2l1.7-3.5.5 3.5h.6zM1189 39.2l29.4 4.1c0 2.6 2.1 4.7 4.7 4.7s4.7-2.1 4.7-4.7-2.1-4.7-4.7-4.7c-1.1 0-2.1.4-2.8 1l-32.1-32c.6-.8.9-1.8.9-2.8 0-2.6-2.1-4.7-4.7-4.7s-4.7 2.1-4.7 4.7c0 1.1.4 2 .9 2.8l-32.1 32c-.8-.6-1.8-1-2.8-1-2.6 0-4.7 2.1-4.7 4.7s2.1 4.7 4.7 4.7 4.7-2.1 4.7-4.7c0-1.1-.4-2-.9-2.8l32.1-32c.8.6 1.8 1 2.8 1s2.1-.4 2.8-1l32.1 32c-.3.5-.6 1-.8 1.5l-29.4-4.1c0-2.6-2.1-4.7-4.7-4.7s-4.7 2.1-4.7 4.7 2.1 4.7 4.7 4.7c2.2 0 4-1.4 4.6-3.4M1258 13c-1.1-.4-2.9-.6-5.5-.6h-5.5v23.9h2.5v-11h2.3c3 0 5.7-.1 7.4-1.2 1.8-1.1 2.8-3 2.8-5.2-.1-2.8-1.5-5-4-5.9m0 8.8c-1 .8-2.5 1-4.7 1h-3.8v-7.9h4.1c1.7 0 3.2.1 4.3.9.9.7 1.5 1.9 1.5 3.1-.1 1-.6 2.2-1.4 2.9M1276.9 12.4h-.6L1265 36.1v.1h2.8l3.7-7.8h10.2l3.7 7.8h2.7l-11.2-23.8zm3.6 13.6h-7.9l4-8.4 3.9 8.4zM1311.6 30.5 1296 12.4h-.6v23.8h2.5V18.4l15.6 17.8h.6V12.4h-2.5zM1335.1 11.8c-6.9 0-12.4 5.5-12.4 12.6 0 7 5.5 12.4 12.6 12.4 7 0 12.6-5.5 12.6-12.5 0-3.4-1.3-6.6-3.7-8.9-2.4-2.3-5.6-3.6-9.1-3.6m10.2 12.5c0 5.8-4.3 10.1-10 10.1-5.6 0-9.9-4.4-9.9-10 0-6.4 5-10.2 9.9-10.2 2.6 0 5.1 1 7 2.8 1.9 1.9 3 4.5 3 7.3M1370.8 21.7c.5-1.1.7-1.8.7-3 0-2.7-1.5-4.8-3.9-5.8-1.1-.4-2.9-.6-5.5-.6h-5.5v23.9h2.5v-11h1.3l8.5 11h3.1l-8.6-11c4 0 6.3-1.1 7.4-3.5m-1.9-2.9c0 1.2-.5 2.3-1.4 3-1.1.9-2.9 1-4.6 1h-3.9v-7.9h4.8c3.3-.1 5.1 1.4 5.1 3.9M1390.6 12.4h-.6l-11.3 23.8v.1h2.8l3.7-7.8h10.2l3.7 7.8h2.7l-11.2-23.9zm3.6 13.6h-7.9l4-8.4 3.9 8.4zM1432.1 12.4h-.5l-9.5 19.4-9.6-19.4h-.5l-3.4 23.8h2.4l2.3-16.9 8.4 16.9h.7l8.3-16.8 2.3 16.8h2.5l-3.4-23.8zM1443.9 12.4h2.5v23.9h-2.5zM1471.2 12.5l.1-.1h-3.4l-9.4 8.8v-8.8h-2.5v23.8h2.5V25.3l10.3 10.9h3.4l-12.4-13.1zM1490.3 12.4h-.6l-11.3 23.8v.1h2.8l3.7-7.8h10.2l3.7 7.8h2.7l-11.2-23.9zm3.6 13.6h-7.9l4-8.4 3.9 8.4zM1502.2 11.8h1.1v4.6h.7v-4.6h1.1v-.6h-2.9zM1511.3 11.3v-.1h-.2l-2 4.1-2-4v-.1h-.2l-.7 5.2h.6l.5-3.5 1.7 3.5h.2l1.7-3.5.5 3.5h.6z" class="st0"/></svg>